<?xml version="1.0" encoding="utf-8" ?>
<svg baseProfile="full" height="17.181818181818183cm" version="1.1" width="47.1cm" xmlns="http://www.w3.org/2000/svg" xmlns:ev="http://www.w3.org/2001/xml-events" xmlns:xlink="http://www.w3.org/1999/xlink"><defs /><polyline fill="none" points="40,210 60,210 90,240 130,240" stroke="black" stroke-width="2" /><polyline fill="none" points="40,240 60,240 90,210 130,210" stroke="black" stroke-width="2" /><text font-size="9" x="61" y="205">BS-RX</text><text font-size="7" x="85" y="224">θ=-1.0</text><polyline fill="none" points="40,330 60,330 90,360 130,360" stroke="black" stroke-width="2" /><polyline fill="none" points="40,360 60,360 90,330 130,330" stroke="black" stroke-width="2" /><text font-size="9" x="61" y="325">BS-RX</text><text font-size="7" x="85" y="344">θ=-1.0</text><polyline fill="none" points="130,210 150,210 180,330 220,330" stroke="black" stroke-width="2" /><polyline fill="none" points="130,330 150,330 180,210 220,210" stroke="black" stroke-width="2" /><text font-size="9" x="148" y="205">MZI-PT</text><text font-size="7" x="175" y="224">θ=0.0</text><text font-size="7" x="175" y="230">ϕ=0.0</text><polyline fill="none" points="220,210 310,210" stroke="black" stroke-width="2" /><rect fill="teal" height="12" rx="0" ry="0" stroke="black" stroke-width="1.5" width="6" x="262.5" y="205" /><text font-size="9" x="260" y="200">PS</text><text font-size="7" x="275" y="200">θ=-1.571</text><polyline fill="none" points="220,330 310,330" stroke="black" stroke-width="2" /><rect fill="teal" height="12" rx="0" ry="0" stroke="black" stroke-width="1.5" width="6" x="262.5" y="325" /><text font-size="9" x="260" y="320">PS</text><text font-size="7" x="275" y="320">θ=-1.571</text><polyline fill="none" points="130,240 150,240 180,360 220,360" stroke="black" stroke-width="2" /><polyline fill="none" points="130,360 150,360 180,240 220,240" stroke="black" stroke-width="2" /><text font-size="9" x="148" y="235">MZI-PT</text><text font-size="7" x="175" y="254">θ=0.0</text><text font-size="7" x="175" y="260">ϕ=0.0</text><polyline fill="none" points="220,240 310,240" stroke="black" stroke-width="2" /><rect fill="teal" height="12" rx="0" ry="0" stroke="black" stroke-width="1.5" width="6" x="262.5" y="235" /><text font-size="9" x="260" y="230">PS</text><text font-size="7" x="275" y="230">θ=-1.571</text><polyline fill="none" points="220,360 310,360" stroke="black" stroke-width="2" /><rect fill="teal" height="12" rx="0" ry="0" stroke="black" stroke-width="1.5" width="6" x="262.5" y="355" /><text font-size="9" x="260" y="350">PS</text><text font-size="7" x="275" y="350">θ=-1.571</text><polyline fill="none" points="310,180 330,180 360,210 400,210" stroke="black" stroke-width="2" /><polyline fill="none" points="310,210 330,210 360,180 400,180" stroke="black" stroke-width="2" /><text font-size="9" x="328" y="175">MZI-PT</text><text font-size="7" x="355" y="194">θ=1.0</text><text font-size="7" x="355" y="200">ϕ=0.0</text><polyline fill="none" points="310,360 330,360 360,390 400,390" stroke="black" stroke-width="2" /><polyline fill="none" points="310,390 330,390 360,360 400,360" stroke="black" stroke-width="2" /><text font-size="9" x="328" y="355">MZI-PT</text><text font-size="7" x="355" y="374">θ=1.0</text><text font-size="7" x="355" y="380">ϕ=1.0</text><polyline fill="none" points="400,150 420,150 450,180 490,180" stroke="black" stroke-width="2" /><polyline fill="none" points="400,180 420,180 450,150 490,150" stroke="black" stroke-width="2" /><text font-size="9" x="418" y="145">MZI-PT</text><text font-size="7" x="445" y="164">θ=1.0</text><text font-size="7" x="445" y="170">ϕ=0.0</text><polyline fill="none" points="400,390 420,390 450,420 490,420" stroke="black" stroke-width="2" /><polyline fill="none" points="400,420 420,420 450,390 490,390" stroke="black" stroke-width="2" /><text font-size="9" x="418" y="385">MZI-PT</text><text font-size="7" x="445" y="404">θ=1.0</text><text font-size="7" x="445" y="410">ϕ=1.0</text><polyline fill="none" points="400,210 420,210 450,330 490,330" stroke="black" stroke-width="2" /><polyline fill="none" points="400,330 420,330 450,210 490,210" stroke="black" stroke-width="2" /><text font-size="9" x="418" y="205">MZI-PT</text><text font-size="7" x="445" y="224">θ=0.0</text><text font-size="7" x="445" y="230">ϕ=0.0</text><polyline fill="none" points="490,210 580,210" stroke="black" stroke-width="2" /><rect fill="teal" height="12" rx="0" ry="0" stroke="black" stroke-width="1.5" width="6" x="532.5" y="205" /><text font-size="9" x="530" y="200">PS</text><text font-size="7" x="545" y="200">θ=-1.571</text><polyline fill="none" points="490,330 580,330" stroke="black" stroke-width="2" /><rect fill="teal" height="12" rx="0" ry="0" stroke="black" stroke-width="1.5" width="6" x="532.5" y="325" /><text font-size="9" x="530" y="320">PS</text><text font-size="7" x="545" y="320">θ=-1.571</text><polyline fill="none" points="400,240 420,240 450,360 490,360" stroke="black" stroke-width="2" /><polyline fill="none" points="400,360 420,360 450,240 490,240" stroke="black" stroke-width="2" /><text font-size="9" x="418" y="235">MZI-PT</text><text font-size="7" x="445" y="254">θ=0.0</text><text font-size="7" x="445" y="260">ϕ=0.0</text><polyline fill="none" points="490,240 580,240" stroke="black" stroke-width="2" /><rect fill="teal" height="12" rx="0" ry="0" stroke="black" stroke-width="1.5" width="6" x="532.5" y="235" /><text font-size="9" x="530" y="230">PS</text><text font-size="7" x="545" y="230">θ=-1.571</text><polyline fill="none" points="490,360 580,360" stroke="black" stroke-width="2" /><rect fill="teal" height="12" rx="0" ry="0" stroke="black" stroke-width="1.5" width="6" x="532.5" y="355" /><text font-size="9" x="530" y="350">PS</text><text font-size="7" x="545" y="350">θ=-1.571</text><polyline fill="none" points="580,180 600,180 630,210 670,210" stroke="black" stroke-width="2" /><polyline fill="none" points="580,210 600,210 630,180 670,180" stroke="black" stroke-width="2" /><text font-size="9" x="598" y="175">MZI-PT</text><text font-size="7" x="625" y="194">θ=1.0</text><text font-size="7" x="625" y="200">ϕ=0.0</text><polyline fill="none" points="580,360 600,360 630,390 670,390" stroke="black" stroke-width="2" /><polyline fill="none" points="580,390 600,390 630,360 670,360" stroke="black" stroke-width="2" /><text font-size="9" x="598" y="355">MZI-PT</text><text font-size="7" x="625" y="374">θ=1.0</text><text font-size="7" x="625" y="380">ϕ=1.0</text><polyline fill="none" points="670,120 690,120 720,180 760,180" stroke="black" stroke-width="2" /><polyline fill="none" points="670,180 690,180 720,120 760,120" stroke="black" stroke-width="2" /><text font-size="9" x="688" y="115">MZI-PT</text><text font-size="7" x="715" y="134">θ=1.0</text><text font-size="7" x="715" y="140">ϕ=0.0</text><polyline fill="none" points="670,390 690,390 720,450 760,450" stroke="black" stroke-width="2" /><polyline fill="none" points="670,450 690,450 720,390 760,390" stroke="black" stroke-width="2" /><text font-size="9" x="688" y="385">MZI-PT</text><text font-size="7" x="715" y="404">θ=1.0</text><text font-size="7" x="715" y="410">ϕ=1.0</text><polyline fill="none" points="670,210 690,210 720,330 760,330" stroke="black" stroke-width="2" /><polyline fill="none" points="670,330 690,330 720,210 760,210" stroke="black" stroke-width="2" /><text font-size="9" x="688" y="205">MZI-PT</text><text font-size="7" x="715" y="224">θ=0.0</text><text font-size="7" x="715" y="230">ϕ=0.0</text><polyline fill="none" points="760,210 850,210" stroke="black" stroke-width="2" /><rect fill="teal" height="12" rx="0" ry="0" stroke="black" stroke-width="1.5" width="6" x="802.5" y="205" /><text font-size="9" x="800" y="200">PS</text><text font-size="7" x="815" y="200">θ=-1.571</text><polyline fill="none" points="760,330 850,330" stroke="black" stroke-width="2" /><rect fill="teal" height="12" rx="0" ry="0" stroke="black" stroke-width="1.5" width="6" x="802.5" y="325" /><text font-size="9" x="800" y="320">PS</text><text font-size="7" x="815" y="320">θ=-1.571</text><polyline fill="none" points="670,240 690,240 720,360 760,360" stroke="black" stroke-width="2" /><polyline fill="none" points="670,360 690,360 720,240 760,240" stroke="black" stroke-width="2" /><text font-size="9" x="688" y="235">MZI-PT</text><text font-size="7" x="715" y="254">θ=0.0</text><text font-size="7" x="715" y="260">ϕ=0.0</text><polyline fill="none" points="760,240 850,240" stroke="black" stroke-width="2" /><rect fill="teal" height="12" rx="0" ry="0" stroke="black" stroke-width="1.5" width="6" x="802.5" y="235" /><text font-size="9" x="800" y="230">PS</text><text font-size="7" x="815" y="230">θ=-1.571</text><polyline fill="none" points="760,360 850,360" stroke="black" stroke-width="2" /><rect fill="teal" height="12" rx="0" ry="0" stroke="black" stroke-width="1.5" width="6" x="802.5" y="355" /><text font-size="9" x="800" y="350">PS</text><text font-size="7" x="815" y="350">θ=-1.571</text><polyline fill="none" points="850,180 870,180 900,210 940,210" stroke="black" stroke-width="2" /><polyline fill="none" points="850,210 870,210 900,180 940,180" stroke="black" stroke-width="2" /><text font-size="9" x="868" y="175">MZI-PT</text><text font-size="7" x="895" y="194">θ=1.0</text><text font-size="7" x="895" y="200">ϕ=0.0</text><polyline fill="none" points="850,360 870,360 900,390 940,390" stroke="black" stroke-width="2" /><polyline fill="none" points="850,390 870,390 900,360 940,360" stroke="black" stroke-width="2" /><text font-size="9" x="868" y="355">MZI-PT</text><text font-size="7" x="895" y="374">θ=1.0</text><text font-size="7" x="895" y="380">ϕ=1.0</text><polyline fill="none" points="940,90 960,90 990,180 1030,180" stroke="black" stroke-width="2" /><polyline fill="none" points="940,180 960,180 990,90 1030,90" stroke="black" stroke-width="2" /><text font-size="9" x="958" y="85">MZI-PT</text><text font-size="7" x="985" y="104">θ=1.0</text><text font-size="7" x="985" y="110">ϕ=0.0</text><polyline fill="none" points="940,390 960,390 990,480 1030,480" stroke="black" stroke-width="2" /><polyline fill="none" points="940,480 960,480 990,390 1030,390" stroke="black" stroke-width="2" /><text font-size="9" x="958" y="385">MZI-PT</text><text font-size="7" x="985" y="404">θ=1.0</text><text font-size="7" x="985" y="410">ϕ=1.0</text><polyline fill="none" points="940,210 960,210 990,330 1030,330" stroke="black" stroke-width="2" /><polyline fill="none" points="940,330 960,330 990,210 1030,210" stroke="black" stroke-width="2" /><text font-size="9" x="958" y="205">MZI-PT</text><text font-size="7" x="985" y="224">θ=0.0</text><text font-size="7" x="985" y="230">ϕ=0.0</text><polyline fill="none" points="1030,210 1120,210" stroke="black" stroke-width="2" /><rect fill="teal" height="12" rx="0" ry="0" stroke="black" stroke-width="1.5" width="6" x="1072.5" y="205" /><text font-size="9" x="1070" y="200">PS</text><text font-size="7" x="1085" y="200">θ=-1.571</text><polyline fill="none" points="1030,330 1120,330" stroke="black" stroke-width="2" /><rect fill="teal" height="12" rx="0" ry="0" stroke="black" stroke-width="1.5" width="6" x="1072.5" y="325" /><text font-size="9" x="1070" y="320">PS</text><text font-size="7" x="1085" y="320">θ=-1.571</text><polyline fill="none" points="940,240 960,240 990,360 1030,360" stroke="black" stroke-width="2" /><polyline fill="none" points="940,360 960,360 990,240 1030,240" stroke="black" stroke-width="2" /><text font-size="9" x="958" y="235">MZI-PT</text><text font-size="7" x="985" y="254">θ=0.0</text><text font-size="7" x="985" y="260">ϕ=0.0</text><polyline fill="none" points="1030,240 1120,240" stroke="black" stroke-width="2" /><rect fill="teal" height="12" rx="0" ry="0" stroke="black" stroke-width="1.5" width="6" x="1072.5" y="235" /><text font-size="9" x="1070" y="230">PS</text><text font-size="7" x="1085" y="230">θ=-1.571</text><polyline fill="none" points="1030,360 1120,360" stroke="black" stroke-width="2" /><rect fill="teal" height="12" rx="0" ry="0" stroke="black" stroke-width="1.5" width="6" x="1072.5" y="355" /><text font-size="9" x="1070" y="350">PS</text><text font-size="7" x="1085" y="350">θ=-1.571</text><polyline fill="none" points="1120,180 1140,180 1170,210 1210,210" stroke="black" stroke-width="2" /><polyline fill="none" points="1120,210 1140,210 1170,180 1210,180" stroke="black" stroke-width="2" /><text font-size="9" x="1138" y="175">MZI-PT</text><text font-size="7" x="1165" y="194">θ=1.0</text><text font-size="7" x="1165" y="200">ϕ=0.0</text><polyline fill="none" points="1120,360 1140,360 1170,390 1210,390" stroke="black" stroke-width="2" /><polyline fill="none" points="1120,390 1140,390 1170,360 1210,360" stroke="black" stroke-width="2" /><text font-size="9" x="1138" y="355">MZI-PT</text><text font-size="7" x="1165" y="374">θ=1.0</text><text font-size="7" x="1165" y="380">ϕ=1.0</text><polyline fill="none" points="1210,60 1230,60 1260,180 1300,180" stroke="black" stroke-width="2" /><polyline fill="none" points="1210,180 1230,180 1260,60 1300,60" stroke="black" stroke-width="2" /><text font-size="9" x="1228" y="55">MZI-PT</text><text font-size="7" x="1255" y="74">θ=1.0</text><text font-size="7" x="1255" y="80">ϕ=0.0</text><polyline fill="none" points="1210,390 1230,390 1260,510 1300,510" stroke="black" stroke-width="2" /><polyline fill="none" points="1210,510 1230,510 1260,390 1300,390" stroke="black" stroke-width="2" /><text font-size="9" x="1228" y="385">MZI-PT</text><text font-size="7" x="1255" y="404">θ=1.0</text><text font-size="7" x="1255" y="410">ϕ=1.0</text><polyline fill="none" points="1210,210 1230,210 1260,330 1300,330" stroke="black" stroke-width="2" /><polyline fill="none" points="1210,330 1230,330 1260,210 1300,210" stroke="black" stroke-width="2" /><text font-size="9" x="1228" y="205">MZI-PT</text><text font-size="7" x="1255" y="224">θ=0.0</text><text font-size="7" x="1255" y="230">ϕ=0.0</text><polyline fill="none" points="1300,210 1390,210" stroke="black" stroke-width="2" /><rect fill="teal" height="12" rx="0" ry="0" stroke="black" stroke-width="1.5" width="6" x="1342.5" y="205" /><text font-size="9" x="1340" y="200">PS</text><text font-size="7" x="1355" y="200">θ=-1.571</text><polyline fill="none" points="1300,330 1390,330" stroke="black" stroke-width="2" /><rect fill="teal" height="12" rx="0" ry="0" stroke="black" stroke-width="1.5" width="6" x="1342.5" y="325" /><text font-size="9" x="1340" y="320">PS</text><text font-size="7" x="1355" y="320">θ=-1.571</text><polyline fill="none" points="1210,240 1230,240 1260,360 1300,360" stroke="black" stroke-width="2" /><polyline fill="none" points="1210,360 1230,360 1260,240 1300,240" stroke="black" stroke-width="2" /><text font-size="9" x="1228" y="235">MZI-PT</text><text font-size="7" x="1255" y="254">θ=0.0</text><text font-size="7" x="1255" y="260">ϕ=0.0</text><polyline fill="none" points="1300,240 1390,240" stroke="black" stroke-width="2" /><rect fill="teal" height="12" rx="0" ry="0" stroke="black" stroke-width="1.5" width="6" x="1342.5" y="235" /><text font-size="9" x="1340" y="230">PS</text><text font-size="7" x="1355" y="230">θ=-1.571</text><polyline fill="none" points="1300,360 1390,360" stroke="black" stroke-width="2" /><rect fill="teal" height="12" rx="0" ry="0" stroke="black" stroke-width="1.5" width="6" x="1342.5" y="355" /><text font-size="9" x="1340" y="350">PS</text><text font-size="7" x="1355" y="350">θ=-1.571</text><polyline fill="none" points="1390,180 1410,180 1440,210 1480,210" stroke="black" stroke-width="2" /><polyline fill="none" points="1390,210 1410,210 1440,180 1480,180" stroke="black" stroke-width="2" /><text font-size="9" x="1408" y="175">MZI-PT</text><text font-size="7" x="1435" y="194">θ=1.0</text><text font-size="7" x="1435" y="200">ϕ=0.0</text><polyline fill="none" points="1390,360 1410,360 1440,390 1480,390" stroke="black" stroke-width="2" /><polyline fill="none" points="1390,390 1410,390 1440,360 1480,360" stroke="black" stroke-width="2" /><text font-size="9" x="1408" y="355">MZI-PT</text><text font-size="7" x="1435" y="374">θ=1.0</text><text font-size="7" x="1435" y="380">ϕ=1.0</text><polyline fill="none" points="1480,30 1500,30 1530,180 1570,180" stroke="black" stroke-width="2" /><polyline fill="none" points="1480,180 1500,180 1530,30 1570,30" stroke="black" stroke-width="2" /><text font-size="9" x="1498" y="25">MZI-PT</text><text font-size="7" x="1525" y="44">θ=1.0</text><text font-size="7" x="1525" y="50">ϕ=0.0</text><polyline fill="none" points="1480,390 1500,390 1530,540 1570,540" stroke="black" stroke-width="2" /><polyline fill="none" points="1480,540 1500,540 1530,390 1570,390" stroke="black" stroke-width="2" /><text font-size="9" x="1498" y="385">MZI-PT</text><text font-size="7" x="1525" y="404">θ=1.0</text><text font-size="7" x="1525" y="410">ϕ=1.0</text><polyline fill="none" points="40,30 130,30" stroke="black" stroke-width="2" /><polyline fill="none" points="40,60 130,60" stroke="black" stroke-width="2" /><polyline fill="none" points="40,90 130,90" stroke="black" stroke-width="2" /><polyline fill="none" points="40,120 130,120" stroke="black" stroke-width="2" /><polyline fill="none" points="40,150 130,150" stroke="black" stroke-width="2" /><polyline fill="none" points="40,180 130,180" stroke="black" stroke-width="2" /><polyline fill="none" points="40,270 130,270" stroke="black" stroke-width="2" /><polyline fill="none" points="40,300 130,300" stroke="black" stroke-width="2" /><polyline fill="none" points="40,390 130,390" stroke="black" stroke-width="2" /><polyline fill="none" points="40,420 130,420" stroke="black" stroke-width="2" /><polyline fill="none" points="40,450 130,450" stroke="black" stroke-width="2" /><polyline fill="none" points="40,480 130,480" stroke="black" stroke-width="2" /><polyline fill="none" points="40,510 130,510" stroke="black" stroke-width="2" /><polyline fill="none" points="40,540 130,540" stroke="black" stroke-width="2" /><polyline fill="none" points="130,30 220,30" stroke="black" stroke-width="2" /><polyline fill="none" points="130,60 220,60" stroke="black" stroke-width="2" /><polyline fill="none" points="130,90 220,90" stroke="black" stroke-width="2" /><polyline fill="none" points="130,120 220,120" stroke="black" stroke-width="2" /><polyline fill="none" points="130,150 220,150" stroke="black" stroke-width="2" /><polyline fill="none" points="130,180 220,180" stroke="black" stroke-width="2" /><polyline fill="none" points="130,270 220,270" stroke="black" stroke-width="2" /><polyline fill="none" points="130,300 220,300" stroke="black" stroke-width="2" /><polyline fill="none" points="130,390 220,390" stroke="black" stroke-width="2" /><polyline fill="none" points="130,420 220,420" stroke="black" stroke-width="2" /><polyline fill="none" points="130,450 220,450" stroke="black" stroke-width="2" /><polyline fill="none" points="130,480 220,480" stroke="black" stroke-width="2" /><polyline fill="none" points="130,510 220,510" stroke="black" stroke-width="2" /><polyline fill="none" points="130,540 220,540" stroke="black" stroke-width="2" /><polyline fill="none" points="220,30 310,30" stroke="black" stroke-width="2" /><polyline fill="none" points="220,60 310,60" stroke="black" stroke-width="2" /><polyline fill="none" points="220,90 310,90" stroke="black" stroke-width="2" /><polyline fill="none" points="220,120 310,120" stroke="black" stroke-width="2" /><polyline fill="none" points="220,150 310,150" stroke="black" stroke-width="2" /><polyline fill="none" points="220,180 310,180" stroke="black" stroke-width="2" /><polyline fill="none" points="220,270 310,270" stroke="black" stroke-width="2" /><polyline fill="none" points="220,300 310,300" stroke="black" stroke-width="2" /><polyline fill="none" points="220,390 310,390" stroke="black" stroke-width="2" /><polyline fill="none" points="220,420 310,420" stroke="black" stroke-width="2" /><polyline fill="none" points="220,450 310,450" stroke="black" stroke-width="2" /><polyline fill="none" points="220,480 310,480" stroke="black" stroke-width="2" /><polyline fill="none" points="220,510 310,510" stroke="black" stroke-width="2" /><polyline fill="none" points="220,540 310,540" stroke="black" stroke-width="2" /><polyline fill="none" points="310,30 400,30" stroke="black" stroke-width="2" /><polyline fill="none" points="310,60 400,60" stroke="black" stroke-width="2" /><polyline fill="none" points="310,90 400,90" stroke="black" stroke-width="2" /><polyline fill="none" points="310,120 400,120" stroke="black" stroke-width="2" /><polyline fill="none" points="310,150 400,150" stroke="black" stroke-width="2" /><polyline fill="none" points="310,240 400,240" stroke="black" stroke-width="2" /><polyline fill="none" points="310,270 400,270" stroke="black" stroke-width="2" /><polyline fill="none" points="310,300 400,300" stroke="black" stroke-width="2" /><polyline fill="none" points="310,330 400,330" stroke="black" stroke-width="2" /><polyline fill="none" points="310,420 400,420" stroke="black" stroke-width="2" /><polyline fill="none" points="310,450 400,450" stroke="black" stroke-width="2" /><polyline fill="none" points="310,480 400,480" stroke="black" stroke-width="2" /><polyline fill="none" points="310,510 400,510" stroke="black" stroke-width="2" /><polyline fill="none" points="310,540 400,540" stroke="black" stroke-width="2" /><polyline fill="none" points="400,30 490,30" stroke="black" stroke-width="2" /><polyline fill="none" points="400,60 490,60" stroke="black" stroke-width="2" /><polyline fill="none" points="400,90 490,90" stroke="black" stroke-width="2" /><polyline fill="none" points="400,120 490,120" stroke="black" stroke-width="2" /><polyline fill="none" points="400,270 490,270" stroke="black" stroke-width="2" /><polyline fill="none" points="400,300 490,300" stroke="black" stroke-width="2" /><polyline fill="none" points="400,450 490,450" stroke="black" stroke-width="2" /><polyline fill="none" points="400,480 490,480" stroke="black" stroke-width="2" /><polyline fill="none" points="400,510 490,510" stroke="black" stroke-width="2" /><polyline fill="none" points="400,540 490,540" stroke="black" stroke-width="2" /><polyline fill="none" points="490,30 580,30" stroke="black" stroke-width="2" /><polyline fill="none" points="490,60 580,60" stroke="black" stroke-width="2" /><polyline fill="none" points="490,90 580,90" stroke="black" stroke-width="2" /><polyline fill="none" points="490,120 580,120" stroke="black" stroke-width="2" /><polyline fill="none" points="490,150 580,150" stroke="black" stroke-width="2" /><polyline fill="none" points="490,180 580,180" stroke="black" stroke-width="2" /><polyline fill="none" points="490,270 580,270" stroke="black" stroke-width="2" /><polyline fill="none" points="490,300 580,300" stroke="black" stroke-width="2" /><polyline fill="none" points="490,390 580,390" stroke="black" stroke-width="2" /><polyline fill="none" points="490,420 580,420" stroke="black" stroke-width="2" /><polyline fill="none" points="490,450 580,450" stroke="black" stroke-width="2" /><polyline fill="none" points="490,480 580,480" stroke="black" stroke-width="2" /><polyline fill="none" points="490,510 580,510" stroke="black" stroke-width="2" /><polyline fill="none" points="490,540 580,540" stroke="black" stroke-width="2" /><polyline fill="none" points="580,30 670,30" stroke="black" stroke-width="2" /><polyline fill="none" points="580,60 670,60" stroke="black" stroke-width="2" /><polyline fill="none" points="580,90 670,90" stroke="black" stroke-width="2" /><polyline fill="none" points="580,120 670,120" stroke="black" stroke-width="2" /><polyline fill="none" points="580,150 670,150" stroke="black" stroke-width="2" /><polyline fill="none" points="580,240 670,240" stroke="black" stroke-width="2" /><polyline fill="none" points="580,270 670,270" stroke="black" stroke-width="2" /><polyline fill="none" points="580,300 670,300" stroke="black" stroke-width="2" /><polyline fill="none" points="580,330 670,330" stroke="black" stroke-width="2" /><polyline fill="none" points="580,420 670,420" stroke="black" stroke-width="2" /><polyline fill="none" points="580,450 670,450" stroke="black" stroke-width="2" /><polyline fill="none" points="580,480 670,480" stroke="black" stroke-width="2" /><polyline fill="none" points="580,510 670,510" stroke="black" stroke-width="2" /><polyline fill="none" points="580,540 670,540" stroke="black" stroke-width="2" /><polyline fill="none" points="670,30 760,30" stroke="black" stroke-width="2" /><polyline fill="none" points="670,60 760,60" stroke="black" stroke-width="2" /><polyline fill="none" points="670,90 760,90" stroke="black" stroke-width="2" /><polyline fill="none" points="670,150 760,150" stroke="black" stroke-width="2" /><polyline fill="none" points="670,270 760,270" stroke="black" stroke-width="2" /><polyline fill="none" points="670,300 760,300" stroke="black" stroke-width="2" /><polyline fill="none" points="670,420 760,420" stroke="black" stroke-width="2" /><polyline fill="none" points="670,480 760,480" stroke="black" stroke-width="2" /><polyline fill="none" points="670,510 760,510" stroke="black" stroke-width="2" /><polyline fill="none" points="670,540 760,540" stroke="black" stroke-width="2" /><polyline fill="none" points="760,30 850,30" stroke="black" stroke-width="2" /><polyline fill="none" points="760,60 850,60" stroke="black" stroke-width="2" /><polyline fill="none" points="760,90 850,90" stroke="black" stroke-width="2" /><polyline fill="none" points="760,120 850,120" stroke="black" stroke-width="2" /><polyline fill="none" points="760,150 850,150" stroke="black" stroke-width="2" /><polyline fill="none" points="760,180 850,180" stroke="black" stroke-width="2" /><polyline fill="none" points="760,270 850,270" stroke="black" stroke-width="2" /><polyline fill="none" points="760,300 850,300" stroke="black" stroke-width="2" /><polyline fill="none" points="760,390 850,390" stroke="black" stroke-width="2" /><polyline fill="none" points="760,420 850,420" stroke="black" stroke-width="2" /><polyline fill="none" points="760,450 850,450" stroke="black" stroke-width="2" /><polyline fill="none" points="760,480 850,480" stroke="black" stroke-width="2" /><polyline fill="none" points="760,510 850,510" stroke="black" stroke-width="2" /><polyline fill="none" points="760,540 850,540" stroke="black" stroke-width="2" /><polyline fill="none" points="850,30 940,30" stroke="black" stroke-width="2" /><polyline fill="none" points="850,60 940,60" stroke="black" stroke-width="2" /><polyline fill="none" points="850,90 940,90" stroke="black" stroke-width="2" /><polyline fill="none" points="850,120 940,120" stroke="black" stroke-width="2" /><polyline fill="none" points="850,150 940,150" stroke="black" stroke-width="2" /><polyline fill="none" points="850,240 940,240" stroke="black" stroke-width="2" /><polyline fill="none" points="850,270 940,270" stroke="black" stroke-width="2" /><polyline fill="none" points="850,300 940,300" stroke="black" stroke-width="2" /><polyline fill="none" points="850,330 940,330" stroke="black" stroke-width="2" /><polyline fill="none" points="850,420 940,420" stroke="black" stroke-width="2" /><polyline fill="none" points="850,450 940,450" stroke="black" stroke-width="2" /><polyline fill="none" points="850,480 940,480" stroke="black" stroke-width="2" /><polyline fill="none" points="850,510 940,510" stroke="black" stroke-width="2" /><polyline fill="none" points="850,540 940,540" stroke="black" stroke-width="2" /><polyline fill="none" points="940,30 1030,30" stroke="black" stroke-width="2" /><polyline fill="none" points="940,60 1030,60" stroke="black" stroke-width="2" /><polyline fill="none" points="940,120 1030,120" stroke="black" stroke-width="2" /><polyline fill="none" points="940,150 1030,150" stroke="black" stroke-width="2" /><polyline fill="none" points="940,270 1030,270" stroke="black" stroke-width="2" /><polyline fill="none" points="940,300 1030,300" stroke="black" stroke-width="2" /><polyline fill="none" points="940,420 1030,420" stroke="black" stroke-width="2" /><polyline fill="none" points="940,450 1030,450" stroke="black" stroke-width="2" /><polyline fill="none" points="940,510 1030,510" stroke="black" stroke-width="2" /><polyline fill="none" points="940,540 1030,540" stroke="black" stroke-width="2" /><polyline fill="none" points="1030,30 1120,30" stroke="black" stroke-width="2" /><polyline fill="none" points="1030,60 1120,60" stroke="black" stroke-width="2" /><polyline fill="none" points="1030,90 1120,90" stroke="black" stroke-width="2" /><polyline fill="none" points="1030,120 1120,120" stroke="black" stroke-width="2" /><polyline fill="none" points="1030,150 1120,150" stroke="black" stroke-width="2" /><polyline fill="none" points="1030,180 1120,180" stroke="black" stroke-width="2" /><polyline fill="none" points="1030,270 1120,270" stroke="black" stroke-width="2" /><polyline fill="none" points="1030,300 1120,300" stroke="black" stroke-width="2" /><polyline fill="none" points="1030,390 1120,390" stroke="black" stroke-width="2" /><polyline fill="none" points="1030,420 1120,420" stroke="black" stroke-width="2" /><polyline fill="none" points="1030,450 1120,450" stroke="black" stroke-width="2" /><polyline fill="none" points="1030,480 1120,480" stroke="black" stroke-width="2" /><polyline fill="none" points="1030,510 1120,510" stroke="black" stroke-width="2" /><polyline fill="none" points="1030,540 1120,540" stroke="black" stroke-width="2" /><polyline fill="none" points="1120,30 1210,30" stroke="black" stroke-width="2" /><polyline fill="none" points="1120,60 1210,60" stroke="black" stroke-width="2" /><polyline fill="none" points="1120,90 1210,90" stroke="black" stroke-width="2" /><polyline fill="none" points="1120,120 1210,120" stroke="black" stroke-width="2" /><polyline fill="none" points="1120,150 1210,150" stroke="black" stroke-width="2" /><polyline fill="none" points="1120,240 1210,240" stroke="black" stroke-width="2" /><polyline fill="none" points="1120,270 1210,270" stroke="black" stroke-width="2" /><polyline fill="none" points="1120,300 1210,300" stroke="black" stroke-width="2" /><polyline fill="none" points="1120,330 1210,330" stroke="black" stroke-width="2" /><polyline fill="none" points="1120,420 1210,420" stroke="black" stroke-width="2" /><polyline fill="none" points="1120,450 1210,450" stroke="black" stroke-width="2" /><polyline fill="none" points="1120,480 1210,480" stroke="black" stroke-width="2" /><polyline fill="none" points="1120,510 1210,510" stroke="black" stroke-width="2" /><polyline fill="none" points="1120,540 1210,540" stroke="black" stroke-width="2" /><polyline fill="none" points="1210,30 1300,30" stroke="black" stroke-width="2" /><polyline fill="none" points="1210,90 1300,90" stroke="black" stroke-width="2" /><polyline fill="none" points="1210,120 1300,120" stroke="black" stroke-width="2" /><polyline fill="none" points="1210,150 1300,150" stroke="black" stroke-width="2" /><polyline fill="none" points="1210,270 1300,270" stroke="black" stroke-width="2" /><polyline fill="none" points="1210,300 1300,300" stroke="black" stroke-width="2" /><polyline fill="none" points="1210,420 1300,420" stroke="black" stroke-width="2" /><polyline fill="none" points="1210,450 1300,450" stroke="black" stroke-width="2" /><polyline fill="none" points="1210,480 1300,480" stroke="black" stroke-width="2" /><polyline fill="none" points="1210,540 1300,540" stroke="black" stroke-width="2" /><polyline fill="none" points="1300,30 1390,30" stroke="black" stroke-width="2" /><polyline fill="none" points="1300,60 1390,60" stroke="black" stroke-width="2" /><polyline fill="none" points="1300,90 1390,90" stroke="black" stroke-width="2" /><polyline fill="none" points="1300,120 1390,120" stroke="black" stroke-width="2" /><polyline fill="none" points="1300,150 1390,150" stroke="black" stroke-width="2" /><polyline fill="none" points="1300,180 1390,180" stroke="black" stroke-width="2" /><polyline fill="none" points="1300,270 1390,270" stroke="black" stroke-width="2" /><polyline fill="none" points="1300,300 1390,300" stroke="black" stroke-width="2" /><polyline fill="none" points="1300,390 1390,390" stroke="black" stroke-width="2" /><polyline fill="none" points="1300,420 1390,420" stroke="black" stroke-width="2" /><polyline fill="none" points="1300,450 1390,450" stroke="black" stroke-width="2" /><polyline fill="none" points="1300,480 1390,480" stroke="black" stroke-width="2" /><polyline fill="none" points="1300,510 1390,510" stroke="black" stroke-width="2" /><polyline fill="none" points="1300,540 1390,540" stroke="black" stroke-width="2" /><polyline fill="none" points="1390,30 1480,30" stroke="black" stroke-width="2" /><polyline fill="none" points="1390,60 1480,60" stroke="black" stroke-width="2" /><polyline fill="none" points="1390,90 1480,90" stroke="black" stroke-width="2" /><polyline fill="none" points="1390,120 1480,120" stroke="black" stroke-width="2" /><polyline fill="none" points="1390,150 1480,150" stroke="black" stroke-width="2" /><polyline fill="none" points="1390,240 1480,240" stroke="black" stroke-width="2" /><polyline fill="none" points="1390,270 1480,270" stroke="black" stroke-width="2" /><polyline fill="none" points="1390,300 1480,300" stroke="black" stroke-width="2" /><polyline fill="none" points="1390,330 1480,330" stroke="black" stroke-width="2" /><polyline fill="none" points="1390,420 1480,420" stroke="black" stroke-width="2" /><polyline fill="none" points="1390,450 1480,450" stroke="black" stroke-width="2" /><polyline fill="none" points="1390,480 1480,480" stroke="black" stroke-width="2" /><polyline fill="none" points="1390,510 1480,510" stroke="black" stroke-width="2" /><polyline fill="none" points="1390,540 1480,540" stroke="black" stroke-width="2" /><polyline fill="none" points="1480,60 1570,60" stroke="black" stroke-width="2" /><polyline fill="none" points="1480,90 1570,90" stroke="black" stroke-width="2" /><polyline fill="none" points="1480,120 1570,120" stroke="black" stroke-width="2" /><polyline fill="none" points="1480,150 1570,150" stroke="black" stroke-width="2" /><polyline fill="none" points="1480,210 1570,210" stroke="black" stroke-width="2" /><polyline fill="none" points="1480,240 1570,240" stroke="black" stroke-width="2" /><polyline fill="none" points="1480,270 1570,270" stroke="black" stroke-width="2" /><polyline fill="none" points="1480,300 1570,300" stroke="black" stroke-width="2" /><polyline fill="none" points="1480,330 1570,330" stroke="black" stroke-width="2" /><polyline fill="none" points="1480,360 1570,360" stroke="black" stroke-width="2" /><polyline fill="none" points="1480,420 1570,420" stroke="black" stroke-width="2" /><polyline fill="none" points="1480,450 1570,450" stroke="black" stroke-width="2" /><polyline fill="none" points="1480,480 1570,480" stroke="black" stroke-width="2" /><polyline fill="none" points="1480,510 1570,510" stroke="black" stroke-width="2" /><text font-size="12" x="25" y="30">0</text><text font-size="12" x="25" y="60">1</text><text font-size="12" x="25" y="90">2</text><text font-size="12" x="25" y="120">3</text><text font-size="12" x="25" y="150">4</text><text font-size="12" x="25" y="180">5</text><text font-size="12" x="25" y="210">6</text><text font-size="12" x="25" y="240">7</text><text font-size="12" x="25" y="270">8</text><text font-size="12" x="25" y="300">9</text><text font-size="12" x="25" y="330">10</text><text font-size="12" x="25" y="360">11</text><text font-size="12" x="25" y="390">12</text><text font-size="12" x="25" y="420">13</text><text font-size="12" x="25" y="450">14</text><text font-size="12" x="25" y="480">15</text><text font-size="12" x="25" y="510">16</text><text font-size="12" x="25" y="540">17</text></svg>