<?xml version="1.0" encoding="utf-8" ?>
<svg baseProfile="full" height="9.545454545454547cm" version="1.1" width="30.9cm" xmlns="http://www.w3.org/2000/svg" xmlns:ev="http://www.w3.org/2001/xml-events" xmlns:xlink="http://www.w3.org/1999/xlink"><defs /><polyline fill="none" points="40,90 60,90 90,120 130,120" stroke="black" stroke-width="2" /><polyline fill="none" points="40,120 60,120 90,90 130,90" stroke="black" stroke-width="2" /><text font-size="9" x="61" y="85">BS-RX</text><text font-size="7" x="85" y="104">θ=-0.829</text><polyline fill="none" points="40,210 60,210 90,240 130,240" stroke="black" stroke-width="2" /><polyline fill="none" points="40,240 60,240 90,210 130,210" stroke="black" stroke-width="2" /><text font-size="9" x="61" y="205">BS-RX</text><text font-size="7" x="85" y="224">θ=-1.267</text><polyline fill="none" points="130,120 150,120 180,210 220,210" stroke="black" stroke-width="2" /><polyline fill="none" points="130,210 150,210 180,120 220,120" stroke="black" stroke-width="2" /><text font-size="9" x="148" y="115">MZI-PT</text><text font-size="7" x="175" y="134">θ=0.083</text><text font-size="7" x="175" y="140">ϕ=0.061</text><polyline fill="none" points="220,120 310,120" stroke="black" stroke-width="2" /><rect fill="teal" height="12" rx="0" ry="0" stroke="black" stroke-width="1.5" width="6" x="262.5" y="115" /><text font-size="9" x="260" y="110">PS</text><text font-size="7" x="275" y="110">θ=-1.347</text><polyline fill="none" points="220,210 310,210" stroke="black" stroke-width="2" /><rect fill="teal" height="12" rx="0" ry="0" stroke="black" stroke-width="1.5" width="6" x="262.5" y="205" /><text font-size="9" x="260" y="200">PS</text><text font-size="7" x="275" y="200">θ=-1.671</text><polyline fill="none" points="130,60 150,60 180,90 220,90" stroke="black" stroke-width="2" /><polyline fill="none" points="130,90 150,90 180,60 220,60" stroke="black" stroke-width="2" /><text font-size="9" x="148" y="55">MZI-PT</text><text font-size="7" x="175" y="74">θ=1.205</text><text font-size="7" x="175" y="80">ϕ=1.01</text><polyline fill="none" points="130,240 150,240 180,270 220,270" stroke="black" stroke-width="2" /><polyline fill="none" points="130,270 150,270 180,240 220,240" stroke="black" stroke-width="2" /><text font-size="9" x="148" y="235">MZI-PT</text><text font-size="7" x="175" y="254">θ=0.933</text><text font-size="7" x="175" y="260">ϕ=0.693</text><polyline fill="none" points="220,30 240,30 270,60 310,60" stroke="black" stroke-width="2" /><polyline fill="none" points="220,60 240,60 270,30 310,30" stroke="black" stroke-width="2" /><text font-size="9" x="238" y="25">MZI-PT</text><text font-size="7" x="265" y="44">θ=0.707</text><text font-size="7" x="265" y="50">ϕ=0.893</text><polyline fill="none" points="220,270 240,270 270,300 310,300" stroke="black" stroke-width="2" /><polyline fill="none" points="220,300 240,300 270,270 310,270" stroke="black" stroke-width="2" /><text font-size="9" x="238" y="265">MZI-PT</text><text font-size="7" x="265" y="284">θ=1.011</text><text font-size="7" x="265" y="290">ϕ=0.928</text><polyline fill="none" points="310,120 330,120 360,210 400,210" stroke="black" stroke-width="2" /><polyline fill="none" points="310,210 330,210 360,120 400,120" stroke="black" stroke-width="2" /><text font-size="9" x="328" y="115">MZI-PT</text><text font-size="7" x="355" y="134">θ=-0.215</text><text font-size="7" x="355" y="140">ϕ=-0.161</text><polyline fill="none" points="400,120 490,120" stroke="black" stroke-width="2" /><rect fill="teal" height="12" rx="0" ry="0" stroke="black" stroke-width="1.5" width="6" x="442.5" y="115" /><text font-size="9" x="440" y="110">PS</text><text font-size="7" x="455" y="110">θ=-1.529</text><polyline fill="none" points="400,210 490,210" stroke="black" stroke-width="2" /><rect fill="teal" height="12" rx="0" ry="0" stroke="black" stroke-width="1.5" width="6" x="442.5" y="205" /><text font-size="9" x="440" y="200">PS</text><text font-size="7" x="455" y="200">θ=-1.661</text><polyline fill="none" points="310,60 330,60 360,90 400,90" stroke="black" stroke-width="2" /><polyline fill="none" points="310,90 330,90 360,60 400,60" stroke="black" stroke-width="2" /><text font-size="9" x="328" y="55">MZI-PT</text><text font-size="7" x="355" y="74">θ=0.953</text><text font-size="7" x="355" y="80">ϕ=0.927</text><polyline fill="none" points="310,240 330,240 360,270 400,270" stroke="black" stroke-width="2" /><polyline fill="none" points="310,270 330,270 360,240 400,240" stroke="black" stroke-width="2" /><text font-size="9" x="328" y="235">MZI-PT</text><text font-size="7" x="355" y="254">θ=1.256</text><text font-size="7" x="355" y="260">ϕ=0.857</text><polyline fill="none" points="400,30 420,30 450,60 490,60" stroke="black" stroke-width="2" /><polyline fill="none" points="400,60 420,60 450,30 490,30" stroke="black" stroke-width="2" /><text font-size="9" x="418" y="25">MZI-PT</text><text font-size="7" x="445" y="44">θ=0.879</text><text font-size="7" x="445" y="50">ϕ=1.245</text><polyline fill="none" points="400,270 420,270 450,300 490,300" stroke="black" stroke-width="2" /><polyline fill="none" points="400,300 420,300 450,270 490,270" stroke="black" stroke-width="2" /><text font-size="9" x="418" y="265">MZI-PT</text><text font-size="7" x="445" y="284">θ=1.196</text><text font-size="7" x="445" y="290">ϕ=1.335</text><polyline fill="none" points="490,120 510,120 540,210 580,210" stroke="black" stroke-width="2" /><polyline fill="none" points="490,210 510,210 540,120 580,120" stroke="black" stroke-width="2" /><text font-size="9" x="508" y="115">MZI-PT</text><text font-size="7" x="535" y="134">θ=0.063</text><text font-size="7" x="535" y="140">ϕ=-0.119</text><polyline fill="none" points="580,120 670,120" stroke="black" stroke-width="2" /><rect fill="teal" height="12" rx="0" ry="0" stroke="black" stroke-width="1.5" width="6" x="622.5" y="115" /><text font-size="9" x="620" y="110">PS</text><text font-size="7" x="635" y="110">θ=-1.665</text><polyline fill="none" points="580,210 670,210" stroke="black" stroke-width="2" /><rect fill="teal" height="12" rx="0" ry="0" stroke="black" stroke-width="1.5" width="6" x="622.5" y="205" /><text font-size="9" x="620" y="200">PS</text><text font-size="7" x="635" y="200">θ=-1.793</text><polyline fill="none" points="490,60 510,60 540,90 580,90" stroke="black" stroke-width="2" /><polyline fill="none" points="490,90 510,90 540,60 580,60" stroke="black" stroke-width="2" /><text font-size="9" x="508" y="55">MZI-PT</text><text font-size="7" x="535" y="74">θ=1.031</text><text font-size="7" x="535" y="80">ϕ=1.072</text><polyline fill="none" points="490,240 510,240 540,270 580,270" stroke="black" stroke-width="2" /><polyline fill="none" points="490,270 510,270 540,240 580,240" stroke="black" stroke-width="2" /><text font-size="9" x="508" y="235">MZI-PT</text><text font-size="7" x="535" y="254">θ=1.119</text><text font-size="7" x="535" y="260">ϕ=0.726</text><polyline fill="none" points="580,30 600,30 630,60 670,60" stroke="black" stroke-width="2" /><polyline fill="none" points="580,60 600,60 630,30 670,30" stroke="black" stroke-width="2" /><text font-size="9" x="598" y="25">MZI-PT</text><text font-size="7" x="625" y="44">θ=0.964</text><text font-size="7" x="625" y="50">ϕ=1.195</text><polyline fill="none" points="580,270 600,270 630,300 670,300" stroke="black" stroke-width="2" /><polyline fill="none" points="580,300 600,300 630,270 670,270" stroke="black" stroke-width="2" /><text font-size="9" x="598" y="265">MZI-PT</text><text font-size="7" x="625" y="284">θ=1.028</text><text font-size="7" x="625" y="290">ϕ=1.044</text><polyline fill="none" points="670,120 690,120 720,210 760,210" stroke="black" stroke-width="2" /><polyline fill="none" points="670,210 690,210 720,120 760,120" stroke="black" stroke-width="2" /><text font-size="9" x="688" y="115">MZI-PT</text><text font-size="7" x="715" y="134">θ=0.134</text><text font-size="7" x="715" y="140">ϕ=0.229</text><polyline fill="none" points="760,120 850,120" stroke="black" stroke-width="2" /><rect fill="teal" height="12" rx="0" ry="0" stroke="black" stroke-width="1.5" width="6" x="802.5" y="115" /><text font-size="9" x="800" y="110">PS</text><text font-size="7" x="815" y="110">θ=-1.607</text><polyline fill="none" points="760,210 850,210" stroke="black" stroke-width="2" /><rect fill="teal" height="12" rx="0" ry="0" stroke="black" stroke-width="1.5" width="6" x="802.5" y="205" /><text font-size="9" x="800" y="200">PS</text><text font-size="7" x="815" y="200">θ=-1.576</text><polyline fill="none" points="670,60 690,60 720,90 760,90" stroke="black" stroke-width="2" /><polyline fill="none" points="670,90 690,90 720,60 760,60" stroke="black" stroke-width="2" /><text font-size="9" x="688" y="55">MZI-PT</text><text font-size="7" x="715" y="74">θ=1.063</text><text font-size="7" x="715" y="80">ϕ=1.093</text><polyline fill="none" points="670,240 690,240 720,270 760,270" stroke="black" stroke-width="2" /><polyline fill="none" points="670,270 690,270 720,240 760,240" stroke="black" stroke-width="2" /><text font-size="9" x="688" y="235">MZI-PT</text><text font-size="7" x="715" y="254">θ=1.085</text><text font-size="7" x="715" y="260">ϕ=1.12</text><polyline fill="none" points="760,30 780,30 810,60 850,60" stroke="black" stroke-width="2" /><polyline fill="none" points="760,60 780,60 810,30 850,30" stroke="black" stroke-width="2" /><text font-size="9" x="778" y="25">MZI-PT</text><text font-size="7" x="805" y="44">θ=0.76</text><text font-size="7" x="805" y="50">ϕ=0.728</text><polyline fill="none" points="760,270 780,270 810,300 850,300" stroke="black" stroke-width="2" /><polyline fill="none" points="760,300 780,300 810,270 850,270" stroke="black" stroke-width="2" /><text font-size="9" x="778" y="265">MZI-PT</text><text font-size="7" x="805" y="284">θ=0.939</text><text font-size="7" x="805" y="290">ϕ=0.726</text><polyline fill="none" points="850,120 870,120 900,210 940,210" stroke="black" stroke-width="2" /><polyline fill="none" points="850,210 870,210 900,120 940,120" stroke="black" stroke-width="2" /><text font-size="9" x="868" y="115">MZI-PT</text><text font-size="7" x="895" y="134">θ=0.041</text><text font-size="7" x="895" y="140">ϕ=-0.071</text><polyline fill="none" points="940,120 1030,120" stroke="black" stroke-width="2" /><rect fill="teal" height="12" rx="0" ry="0" stroke="black" stroke-width="1.5" width="6" x="982.5" y="115" /><text font-size="9" x="980" y="110">PS</text><text font-size="7" x="995" y="110">θ=-1.276</text><polyline fill="none" points="940,210 1030,210" stroke="black" stroke-width="2" /><rect fill="teal" height="12" rx="0" ry="0" stroke="black" stroke-width="1.5" width="6" x="982.5" y="205" /><text font-size="9" x="980" y="200">PS</text><text font-size="7" x="995" y="200">θ=-1.332</text><polyline fill="none" points="850,60 870,60 900,90 940,90" stroke="black" stroke-width="2" /><polyline fill="none" points="850,90 870,90 900,60 940,60" stroke="black" stroke-width="2" /><text font-size="9" x="868" y="55">MZI-PT</text><text font-size="7" x="895" y="74">θ=1.185</text><text font-size="7" x="895" y="80">ϕ=0.989</text><polyline fill="none" points="850,240 870,240 900,270 940,270" stroke="black" stroke-width="2" /><polyline fill="none" points="850,270 870,270 900,240 940,240" stroke="black" stroke-width="2" /><text font-size="9" x="868" y="235">MZI-PT</text><text font-size="7" x="895" y="254">θ=1.175</text><text font-size="7" x="895" y="260">ϕ=0.701</text><polyline fill="none" points="940,30 960,30 990,60 1030,60" stroke="black" stroke-width="2" /><polyline fill="none" points="940,60 960,60 990,30 1030,30" stroke="black" stroke-width="2" /><text font-size="9" x="958" y="25">MZI-PT</text><text font-size="7" x="985" y="44">θ=1.391</text><text font-size="7" x="985" y="50">ϕ=0.995</text><polyline fill="none" points="940,270 960,270 990,300 1030,300" stroke="black" stroke-width="2" /><polyline fill="none" points="940,300 960,300 990,270 1030,270" stroke="black" stroke-width="2" /><text font-size="9" x="958" y="265">MZI-PT</text><text font-size="7" x="985" y="284">θ=0.722</text><text font-size="7" x="985" y="290">ϕ=1.044</text><polyline fill="none" points="40,30 130,30" stroke="black" stroke-width="2" /><polyline fill="none" points="40,60 130,60" stroke="black" stroke-width="2" /><polyline fill="none" points="40,150 130,150" stroke="black" stroke-width="2" /><polyline fill="none" points="40,180 130,180" stroke="black" stroke-width="2" /><polyline fill="none" points="40,270 130,270" stroke="black" stroke-width="2" /><polyline fill="none" points="40,300 130,300" stroke="black" stroke-width="2" /><polyline fill="none" points="130,30 220,30" stroke="black" stroke-width="2" /><polyline fill="none" points="130,150 220,150" stroke="black" stroke-width="2" /><polyline fill="none" points="130,180 220,180" stroke="black" stroke-width="2" /><polyline fill="none" points="130,300 220,300" stroke="black" stroke-width="2" /><polyline fill="none" points="220,90 310,90" stroke="black" stroke-width="2" /><polyline fill="none" points="220,150 310,150" stroke="black" stroke-width="2" /><polyline fill="none" points="220,180 310,180" stroke="black" stroke-width="2" /><polyline fill="none" points="220,240 310,240" stroke="black" stroke-width="2" /><polyline fill="none" points="310,30 400,30" stroke="black" stroke-width="2" /><polyline fill="none" points="310,150 400,150" stroke="black" stroke-width="2" /><polyline fill="none" points="310,180 400,180" stroke="black" stroke-width="2" /><polyline fill="none" points="310,300 400,300" stroke="black" stroke-width="2" /><polyline fill="none" points="400,90 490,90" stroke="black" stroke-width="2" /><polyline fill="none" points="400,150 490,150" stroke="black" stroke-width="2" /><polyline fill="none" points="400,180 490,180" stroke="black" stroke-width="2" /><polyline fill="none" points="400,240 490,240" stroke="black" stroke-width="2" /><polyline fill="none" points="490,30 580,30" stroke="black" stroke-width="2" /><polyline fill="none" points="490,150 580,150" stroke="black" stroke-width="2" /><polyline fill="none" points="490,180 580,180" stroke="black" stroke-width="2" /><polyline fill="none" points="490,300 580,300" stroke="black" stroke-width="2" /><polyline fill="none" points="580,90 670,90" stroke="black" stroke-width="2" /><polyline fill="none" points="580,150 670,150" stroke="black" stroke-width="2" /><polyline fill="none" points="580,180 670,180" stroke="black" stroke-width="2" /><polyline fill="none" points="580,240 670,240" stroke="black" stroke-width="2" /><polyline fill="none" points="670,30 760,30" stroke="black" stroke-width="2" /><polyline fill="none" points="670,150 760,150" stroke="black" stroke-width="2" /><polyline fill="none" points="670,180 760,180" stroke="black" stroke-width="2" /><polyline fill="none" points="670,300 760,300" stroke="black" stroke-width="2" /><polyline fill="none" points="760,90 850,90" stroke="black" stroke-width="2" /><polyline fill="none" points="760,150 850,150" stroke="black" stroke-width="2" /><polyline fill="none" points="760,180 850,180" stroke="black" stroke-width="2" /><polyline fill="none" points="760,240 850,240" stroke="black" stroke-width="2" /><polyline fill="none" points="850,30 940,30" stroke="black" stroke-width="2" /><polyline fill="none" points="850,150 940,150" stroke="black" stroke-width="2" /><polyline fill="none" points="850,180 940,180" stroke="black" stroke-width="2" /><polyline fill="none" points="850,300 940,300" stroke="black" stroke-width="2" /><polyline fill="none" points="940,90 1030,90" stroke="black" stroke-width="2" /><polyline fill="none" points="940,150 1030,150" stroke="black" stroke-width="2" /><polyline fill="none" points="940,180 1030,180" stroke="black" stroke-width="2" /><polyline fill="none" points="940,240 1030,240" stroke="black" stroke-width="2" /><text font-size="12" x="25" y="30">0</text><text font-size="12" x="25" y="60">1</text><text font-size="12" x="25" y="90">2</text><text font-size="12" x="25" y="120">3</text><text font-size="12" x="25" y="150">4</text><text font-size="12" x="25" y="180">5</text><text font-size="12" x="25" y="210">6</text><text font-size="12" x="25" y="240">7</text><text font-size="12" x="25" y="270">8</text><text font-size="12" x="25" y="300">9</text></svg>