<?xml version="1.0" encoding="utf-8" ?>
<svg baseProfile="full" height="9.545454545454547cm" version="1.1" width="14.7cm" xmlns="http://www.w3.org/2000/svg" xmlns:ev="http://www.w3.org/2001/xml-events" xmlns:xlink="http://www.w3.org/1999/xlink"><defs /><polyline fill="none" points="40,90 60,90 90,120 130,120" stroke="black" stroke-width="2" /><polyline fill="none" points="40,120 60,120 90,90 130,90" stroke="black" stroke-width="2" /><text font-size="9" x="61" y="85">BS-RX</text><text font-size="7" x="85" y="104">θ=-2.959</text><polyline fill="none" points="40,210 60,210 90,240 130,240" stroke="black" stroke-width="2" /><polyline fill="none" points="40,240 60,240 90,210 130,210" stroke="black" stroke-width="2" /><text font-size="9" x="61" y="205">BS-RX</text><text font-size="7" x="85" y="224">θ=-0.468</text><polyline fill="none" points="130,120 150,120 180,210 220,210" stroke="black" stroke-width="2" /><polyline fill="none" points="130,210 150,210 180,120 220,120" stroke="black" stroke-width="2" /><text font-size="9" x="148" y="115">MZI-PT</text><text font-size="7" x="175" y="134">θ=-0.272</text><text font-size="7" x="175" y="140">ϕ=-0.028</text><polyline fill="none" points="220,120 310,120" stroke="black" stroke-width="2" /><rect fill="teal" height="12" rx="0" ry="0" stroke="black" stroke-width="1.5" width="6" x="262.5" y="115" /><text font-size="9" x="260" y="110">PS</text><text font-size="7" x="275" y="110">θ=-1.667</text><polyline fill="none" points="220,210 310,210" stroke="black" stroke-width="2" /><rect fill="teal" height="12" rx="0" ry="0" stroke="black" stroke-width="1.5" width="6" x="262.5" y="205" /><text font-size="9" x="260" y="200">PS</text><text font-size="7" x="275" y="200">θ=-1.423</text><polyline fill="none" points="130,60 150,60 180,90 220,90" stroke="black" stroke-width="2" /><polyline fill="none" points="130,90 150,90 180,60 220,60" stroke="black" stroke-width="2" /><text font-size="9" x="148" y="55">MZI-PT</text><text font-size="7" x="175" y="74">θ=2.401</text><text font-size="7" x="175" y="80">ϕ=2.617</text><polyline fill="none" points="130,240 150,240 180,270 220,270" stroke="black" stroke-width="2" /><polyline fill="none" points="130,270 150,270 180,240 220,240" stroke="black" stroke-width="2" /><text font-size="9" x="148" y="235">MZI-PT</text><text font-size="7" x="175" y="254">θ=1.819</text><text font-size="7" x="175" y="260">ϕ=1.373</text><polyline fill="none" points="220,30 240,30 270,60 310,60" stroke="black" stroke-width="2" /><polyline fill="none" points="220,60 240,60 270,30 310,30" stroke="black" stroke-width="2" /><text font-size="9" x="238" y="25">MZI-PT</text><text font-size="7" x="265" y="44">θ=2.531</text><text font-size="7" x="265" y="50">ϕ=1.039</text><polyline fill="none" points="220,270 240,270 270,300 310,300" stroke="black" stroke-width="2" /><polyline fill="none" points="220,300 240,300 270,270 310,270" stroke="black" stroke-width="2" /><text font-size="9" x="238" y="265">MZI-PT</text><text font-size="7" x="265" y="284">θ=2.706</text><text font-size="7" x="265" y="290">ϕ=1.665</text><polyline fill="none" points="310,120 330,120 360,210 400,210" stroke="black" stroke-width="2" /><polyline fill="none" points="310,210 330,210 360,120 400,120" stroke="black" stroke-width="2" /><text font-size="9" x="328" y="115">MZI-PT</text><text font-size="7" x="355" y="134">θ=-0.275</text><text font-size="7" x="355" y="140">ϕ=-0.008</text><polyline fill="none" points="400,120 490,120" stroke="black" stroke-width="2" /><rect fill="teal" height="12" rx="0" ry="0" stroke="black" stroke-width="1.5" width="6" x="442.5" y="115" /><text font-size="9" x="440" y="110">PS</text><text font-size="7" x="455" y="110">θ=-1.547</text><polyline fill="none" points="400,210 490,210" stroke="black" stroke-width="2" /><rect fill="teal" height="12" rx="0" ry="0" stroke="black" stroke-width="1.5" width="6" x="442.5" y="205" /><text font-size="9" x="440" y="200">PS</text><text font-size="7" x="455" y="200">θ=-1.539</text><polyline fill="none" points="310,60 330,60 360,90 400,90" stroke="black" stroke-width="2" /><polyline fill="none" points="310,90 330,90 360,60 400,60" stroke="black" stroke-width="2" /><text font-size="9" x="328" y="55">MZI-PT</text><text font-size="7" x="355" y="74">θ=2.076</text><text font-size="7" x="355" y="80">ϕ=2.579</text><polyline fill="none" points="310,240 330,240 360,270 400,270" stroke="black" stroke-width="2" /><polyline fill="none" points="310,270 330,270 360,240 400,240" stroke="black" stroke-width="2" /><text font-size="9" x="328" y="235">MZI-PT</text><text font-size="7" x="355" y="254">θ=1.371</text><text font-size="7" x="355" y="260">ϕ=1.276</text><polyline fill="none" points="400,30 420,30 450,60 490,60" stroke="black" stroke-width="2" /><polyline fill="none" points="400,60 420,60 450,30 490,30" stroke="black" stroke-width="2" /><text font-size="9" x="418" y="25">MZI-PT</text><text font-size="7" x="445" y="44">θ=2.433</text><text font-size="7" x="445" y="50">ϕ=0.998</text><polyline fill="none" points="400,270 420,270 450,300 490,300" stroke="black" stroke-width="2" /><polyline fill="none" points="400,300 420,300 450,270 490,270" stroke="black" stroke-width="2" /><text font-size="9" x="418" y="265">MZI-PT</text><text font-size="7" x="445" y="284">θ=2.016</text><text font-size="7" x="445" y="290">ϕ=1.264</text><polyline fill="none" points="40,30 130,30" stroke="black" stroke-width="2" /><polyline fill="none" points="40,60 130,60" stroke="black" stroke-width="2" /><polyline fill="none" points="40,150 130,150" stroke="black" stroke-width="2" /><polyline fill="none" points="40,180 130,180" stroke="black" stroke-width="2" /><polyline fill="none" points="40,270 130,270" stroke="black" stroke-width="2" /><polyline fill="none" points="40,300 130,300" stroke="black" stroke-width="2" /><polyline fill="none" points="130,30 220,30" stroke="black" stroke-width="2" /><polyline fill="none" points="130,150 220,150" stroke="black" stroke-width="2" /><polyline fill="none" points="130,180 220,180" stroke="black" stroke-width="2" /><polyline fill="none" points="130,300 220,300" stroke="black" stroke-width="2" /><polyline fill="none" points="220,90 310,90" stroke="black" stroke-width="2" /><polyline fill="none" points="220,150 310,150" stroke="black" stroke-width="2" /><polyline fill="none" points="220,180 310,180" stroke="black" stroke-width="2" /><polyline fill="none" points="220,240 310,240" stroke="black" stroke-width="2" /><polyline fill="none" points="310,30 400,30" stroke="black" stroke-width="2" /><polyline fill="none" points="310,150 400,150" stroke="black" stroke-width="2" /><polyline fill="none" points="310,180 400,180" stroke="black" stroke-width="2" /><polyline fill="none" points="310,300 400,300" stroke="black" stroke-width="2" /><polyline fill="none" points="400,90 490,90" stroke="black" stroke-width="2" /><polyline fill="none" points="400,150 490,150" stroke="black" stroke-width="2" /><polyline fill="none" points="400,180 490,180" stroke="black" stroke-width="2" /><polyline fill="none" points="400,240 490,240" stroke="black" stroke-width="2" /><text font-size="12" x="25" y="30">0</text><text font-size="12" x="25" y="60">1</text><text font-size="12" x="25" y="90">2</text><text font-size="12" x="25" y="120">3</text><text font-size="12" x="25" y="150">4</text><text font-size="12" x="25" y="180">5</text><text font-size="12" x="25" y="210">6</text><text font-size="12" x="25" y="240">7</text><text font-size="12" x="25" y="270">8</text><text font-size="12" x="25" y="300">9</text></svg>